# generated from PmQm by Jehee Lee
:FULLY-SPECIFIED
:DEGREES
642
root 3.46876 30.335 -21.7731 -166.52 12.8001 -175.825
RightUpLeg -69.1447 5.13964 -3.04752
RightLeg 64.4511 3.39233 7.13449
RightFoot -12.3368 -0.0342068 5.71774
RightToes 2.92371e-005 7.89716e-005 -0.000493274
Spine 12.9102 0.0182774 3.66797
Spine1 26.178 -0.830531 7.08826
HEad -20.982 -31.6293 16.4007
LeftShoulder1 -3.88251e-019 -0 -3.92111e-022
LeftArm -30.0854 -5.90726 -87.6872
LeftForeArm 28.9101 2.10763 0.587346
LeftHand -0.853534 -6.89139 8.40144
RightShoulder 7.45443e-017 -2.42657e-020 1.96277e-018
RightArm -24.5197 2.70929 68.3948
RightForeArm 8.98557 -0.000657672 1.82312
RightHand -2.1192 13.6214 -13.2731
LeftUpLeg -70.7669 -8.33818 12.5191
LeftLeg 65.7847 -3.86281 -8.65987
LeftFoot -12.5271 0.044192 -2.97627
LeftToes 3.91355e-005 3.11907e-005 -4.10385e-006
643
root 3.44301 31.3834 -22.4894 -165.484 13.4398 -175.833
RightUpLeg -66.1189 5.50549 -3.182
RightLeg 60.2634 3.98551 7.03072
RightFoot -11.8854 -0.0541019 5.58412
RightToes 2.92371e-005 7.89716e-005 -0.000493274
Spine 12.5063 0.0533528 3.60072
Spine1 25.3415 -0.752368 6.88117
HEad -20.5286 -30.5687 16.1946
LeftShoulder1 -3.88251e-019 -0 -3.92111e-022
LeftArm -29.9193 -6.24751 -87.7409
LeftForeArm 27.6471 2.15964 0.294714
LeftHand -0.8417 -7.30573 8.0355
RightShoulder 7.45443e-017 -2.42657e-020 1.96277e-018
RightArm -24.1613 2.08701 68.4754
RightForeArm 8.24247 0.882038 2.12815
RightHand -2.07405 13.8647 -12.8448
LeftUpLeg -67.7321 -8.55228 12.1115
LeftLeg 61.9365 -3.92856 -7.3579
LeftFoot -12.0324 0.0586176 -2.22411
LeftToes 3.91355e-005 3.11907e-005 -4.10385e-006
644
root 3.38395 32.5077 -23.1799 -164.858 14.1595 -176.045
RightUpLeg -62.4521 5.77769 -3.48899
RightLeg 55.3013 4.71318 6.87866
RightFoot -10.9287 -0.0924723 5.1223
RightToes 2.92371e-005 7.89716e-005 -0.000493274
Spine 12.0399 0.0760424 3.43499
Spine1 24.3752 -0.66585 6.49524
HEad -20.0736 -29.5888 16.1979
LeftShoulder1 -3.88251e-019 -0 -3.92111e-022
LeftArm -30.061 -6.63139 -87.5177
LeftForeArm 26.2322 2.18554 0.355647
LeftHand -0.89827 -7.28719 8.56289
RightShoulder 7.45443e-017 -2.42657e-020 1.96277e-018
RightArm -23.6768 1.32937 68.6082
RightForeArm 9.91474 1.2858 2.44556
RightHand -1.9669 13.9298 -12.1687
LeftUpLeg -63.9502 -8.73446 11.3036
LeftLeg 57.2058 -4.05176 -6.22587
LeftFoot -11.167 0.069368 -1.59999
LeftToes 3.91355e-005 3.11907e-005 -4.10385e-006
645
root 3.31582 33.658 -23.8476 -164.687 14.6992 -176.358
RightUpLeg -58.1667 6.03093 -3.94267
RightLeg 49.7322 5.38565 6.4372
RightFoot -9.69113 -0.138285 5.02622
RightToes 2.92371e-005 7.89716e-005 -0.000493274
Spine 11.5254 0.0869946 3.23088
Spine1 23.3087 -0.583559 6.05489
HEad -19.2006 -29.1552 16.1984
LeftShoulder1 -3.88251e-019 -0 -3.92111e-022
LeftArm -30.073 -6.77317 -87.1657
LeftForeArm 25.5719 2.18832 0.504183
LeftHand -0.898782 -7.1438 8.65881
RightShoulder 7.45443e-017 -2.42657e-020 1.96277e-018
RightArm -23.7632 0.671181 68.7599
RightForeArm 11.6243 1.1981 2.65948
RightHand -1.90414 13.5813 -12.0032
LeftUpLeg -59.5238 -9.02944 10.298
LeftLeg 51.7424 -4.1842 -5.21127
LeftFoot -9.98726 0.0748209 -1.25855
LeftToes 3.91355e-005 3.11907e-005 -4.10385e-006
646
root 3.25884 34.7572 -24.5233 -164.81 14.9474 -176.609
RightUpLeg -53.4746 6.32635 -4.36901
RightLeg 43.8583 5.86815 5.71486
RightFoot -8.37305 -0.190856 5.16665
RightToes 2.92371e-005 7.89716e-005 -0.000493274
Spine 10.9401 0.0517847 3.11006
Spine1 22.0963 -0.603436 5.7786
HEad -17.8308 -29.0285 15.7286
LeftShoulder1 -3.88251e-019 -0 -3.92111e-022
LeftArm -30.0356 -6.47669 -86.8396
LeftForeArm 25.9258 2.18332 0.47597
LeftHand -0.844586 -7.17833 8.1392
RightShoulder 7.45443e-017 -2.42657e-020 1.96277e-018
RightArm -24.0402 -0.376689 68.9662
RightForeArm 12.1477 1.42878 2.69361
RightHand -1.82801 13.227 -11.7523
LeftUpLeg -54.7918 -9.35825 9.28592
LeftLeg 45.9765 -4.32747 -4.36351
LeftFoot -8.63602 0.0758096 -1.01586
LeftToes 3.91355e-005 3.11907e-005 -4.10385e-006
647
root 3.22318 35.755 -25.2199 -165.315 15.1302 -176.728
RightUpLeg -48.422 6.81036 -4.64869
RightLeg 37.9733 6.06803 4.7994
RightFoot -7.16394 -0.245737 5.39664
RightToes 2.92371e-005 7.89716e-005 -0.000493274
Spine 10.3668 -0.009040090009 3.05895
Spine1 20.9077 -0.689987 5.61763
HEad -15.9868 -28.8613 14.854
LeftShoulder1 -3.88251e-019 -0 -3.92111e-022
LeftArm -30.1386 -6.1216 -86.4505
LeftForeArm 25.9462 2.19556 0.304355
LeftHand -0.823211 -7.20524 7.92679
RightShoulder 7.45443e-017 -2.42657e-020 1.96277e-018
RightArm -24.293 -1.6055 69.3512
RightForeArm 12.2688 1.71972 2.58063
RightHand -1.74737 12.9966 -11.3902
LeftUpLeg -49.7708 -9.59788 8.31922
LeftLeg 40.3488 -4.48428 -3.68726
LeftFoot -7.37655 0.0669901 -0.656556
LeftToes 3.91355e-005 3.11907e-005 -4.10385e-006
648
root 3.21596 36.6607 -25.9446 -166.299 15.6517 -176.785
RightUpLeg -42.9364 7.80701 -4.87745
RightLeg 31.9974 5.98386 3.7827
RightFoot -5.89045 -0.323462 5.9412
RightToes 2.92371e-005 7.89716e-005 -0.000493274
Spine 9.81314 0.00253605 2.948
Spine1 19.7657 -0.627586 5.30701
HEad -13.6506 -28.6379 13.8727
LeftShoulder1 -3.88251e-019 -0 -3.92111e-022
LeftArm -30.3245 -5.83418 -86.0047
LeftForeArm 25.431 2.2083 0.26731
LeftHand -0.833128 -6.95528 8.16887
RightShoulder 7.45443e-017 -2.42657e-020 1.96277e-018
RightArm -24.6157 -2.72277 69.7997
RightForeArm 12.6225 1.78334 2.54793
RightHand -1.6447 12.8247 -10.8462
LeftUpLeg -44.2541 -9.62393 7.34997
LeftLeg 34.8657 -4.50966 -3.0106
LeftFoot -6.2946 0.0493803 -0.261584
LeftToes 3.91355e-005 3.11907e-005 -4.10385e-006
649
root 3.23727 37.4619 -26.7245 -167.452 16.5594 -176.82
RightUpLeg -37.31 9.17662 -5.05848
RightLeg 25.9893 5.88979 2.89904
RightFoot -4.58684 -0.419545 6.57016
RightToes 2.92371e-005 7.89716e-005 -0.000493274
Spine 9.08046 0.10109 2.75868
Spine1 18.2741 -0.373973 4.81903
HEad -10.628 -28.3186 12.6214
LeftShoulder1 -3.88251e-019 -0 -3.92111e-022
LeftArm -30.5267 -5.22386 -85.686
LeftForeArm 25.4844 2.19262 0.455388
LeftHand -0.83756 -6.64317 8.40751
RightShoulder 7.45443e-017 -2.42657e-020 1.96277e-018
RightArm -24.9187 -3.98038 70.1852
RightForeArm 13.5487 1.87613 2.62298
RightHand -1.50093 12.6796 -10.0159
LeftUpLeg -38.5679 -9.37212 6.38577
LeftLeg 29.5775 -4.37591 -2.33787
LeftFoot -5.42658 0.0288527 0.0804809
LeftToes 3.91355e-005 3.11907e-005 -4.10385e-006
650
root 3.27317 38.1125 -27.5616 -168.475 17.5602 -176.768
RightUpLeg -31.9695 10.2447 -5.0105
RightLeg 20.3962 6.10823 2.2971
RightFoot -3.56366 -0.508104 7.10736
RightToes 2.92371e-005 7.89716e-005 -0.000493274
Spine 8.06279 0.175783 2.57351
Spine1 16.2162 -0.159192 4.31504
HEad -6.6397 -27.753 10.8231
LeftShoulder1 -3.88251e-019 -0 -3.92111e-022
LeftArm -30.7759 -4.25806 -85.4073
LeftForeArm 26.4274 2.15955 0.646006
LeftHand -0.838819 -6.42009 8.56748
RightShoulder 7.45443e-017 -2.42657e-020 1.96277e-018
RightArm -25.1644 -5.36783 70.5803
RightForeArm 15.5018 2.00707 2.74552
RightHand -1.37007 12.3505 -9.34377
LeftUpLeg -33.3117 -8.90696 5.50982
LeftLeg 24.9367 -4.24439 -1.81587
LeftFoot -4.86516 0.00209889 0.483334
LeftToes 3.91355e-005 3.11907e-005 -4.10385e-006
651
root 3.31001 38.614 -28.4343 -169.482 18.5873 -176.626
RightUpLeg -26.7044 8.29487 -3.29331
RightLeg 15.5282 9.53029 1.35067
RightFoot -2.77316 -0.594683 7.67446
RightToes 2.92371e-005 7.89716e-005 -0.000493274
Spine 6.90316 0.175179 2.4265
Spine1 13.8747 -0.0946579 3.85911
HEad -1.76203 -26.9232 8.43167
LeftShoulder1 -3.88251e-019 -0 -3.92111e-022
LeftArm -31.1369 -3.33161 -85.0048
LeftForeArm 27.9732 2.12642 0.656247
LeftHand -0.821975 -6.07862 8.63533
RightShoulder 7.45443e-017 -2.42657e-020 1.96277e-018
RightArm -25.3804 -6.62353 70.9295
RightForeArm 17.7552 2.28864 3.08416
RightHand -1.27515 11.7199 -9.02908
LeftUpLeg -28.5004 -8.32243 4.71043
LeftLeg 21.1406 -4.07658 -1.412
LeftFoot -4.63322 -0.0332265 1.04348
LeftToes 3.91355e-005 3.11907e-005 -4.10385e-006
652
root 3.34907 38.9943 -29.3327 -170.595 19.6882 -176.485
RightUpLeg -21.7131 4.04167 -0.974671
RightLeg 11.3278 15.2862 -0.0777332
RightFoot -2.24941 -0.651816 7.99341
RightToes 2.92371e-005 7.89716e-005 -0.000493274
Spine 5.72693 0.140644 2.31173
Spine1 11.5024 -0.09779 3.46611
HEad 3.49612 -25.7863 5.64177
LeftShoulder1 -3.88251e-019 -0 -3.92111e-022
LeftArm -31.5806 -2.6015 -84.6461
LeftForeArm 29.7137 2.0986 0.525015
LeftHand -0.778613 -5.67753 8.47437
RightShoulder 7.45443e-017 -2.42657e-020 1.96277e-018
RightArm -25.4874 -7.79306 71.0911
RightForeArm 19.0949 3.05011 3.80288
RightHand -1.22425 11.0588 -9.01274
LeftUpLeg -23.9183 -7.5142 3.84379
LeftLeg 18.0184 -3.95759 -1.06151
LeftFoot -4.72112 -0.0722987 1.74254
LeftToes 3.91355e-005 3.11907e-005 -4.10385e-006
653
root 3.39556 39.2542 -30.2383 -171.655 20.5898 -176.383
RightUpLeg -17.5908 1.58043 -0.12529
RightLeg 8.22134 18.6761 -1.17305
RightFoot -2.43738 -0.639842 7.99026
RightToes 2.92371e-005 7.89716e-005 -0.000493274
Spine 4.52882 0.0554328 2.21169
Spine1 9.08978 -0.197905 3.15402
HEad 8.56682 -24.2526 3.0536
LeftShoulder1 -3.88251e-019 -0 -3.92111e-022
LeftArm -31.8939 -2.0484 -84.5005
LeftForeArm 31.0859 2.08105 0.368347
LeftHand -0.760035 -5.45616 8.4384
RightShoulder 7.45443e-017 -2.42657e-020 1.96277e-018
RightArm -25.5508 -8.90624 71.2259
RightForeArm 19.6051 3.99628 4.71464
RightHand -1.26115 10.8024 -9.40719
LeftUpLeg -19.8456 -6.03261 2.75907
LeftLeg 15.6988 -4.68775 -0.778821
LeftFoot -5.16882 -0.103802 2.50267
LeftToes 3.91355e-005 3.11907e-005 -4.10385e-006
654
root 3.44531 39.3955 -31.1167 -172.59 21.0763 -176.372
RightUpLeg -14.5988 0.737383 -0.246537
RightLeg 6.97223 19.8305 -1.56195
RightFoot -3.4346 -0.580621 8.05162
RightToes 2.92371e-005 7.89716e-005 -0.000493274
Spine 3.37198 -0.1178 2.07066
Spine1 6.76328 -0.468288 2.86986
HEad 13.0872 -22.4929 1.1323
LeftShoulder1 -3.88251e-019 -0 -3.92111e-022
LeftArm -31.9475 -1.8598 -84.4804
LeftForeArm 32.0256 2.07565 0.198093
LeftHand -0.794729 -5.32575 8.90776
RightShoulder 7.45443e-017 -2.42657e-020 1.96277e-018
RightArm -25.7508 -9.73317 71.5468
RightForeArm 19.8639 4.61493 5.46674
RightHand -1.36144 11.0725 -9.96197
LeftUpLeg -16.5734 -4.56733 1.75667
LeftLeg 14.3415 -5.75391 -0.676774
LeftFoot -5.96425 -0.117514 3.2666
LeftToes 3.91355e-005 3.11907e-005 -4.10385e-006
655
root 3.50187 39.4391 -31.9487 -173.666 21.3873 -176.655
RightUpLeg -12.5835 0.824655 -0.885773
RightLeg 7.79156 20.1204 -1.31612
RightFoot -5.20827 -0.461605 7.9407
RightToes 2.92371e-005 7.89716e-005 -0.000493274
Spine 2.42943 -0.300969 1.78756
Spine1 4.86946 -0.750056 2.49398
HEad 16.8385 -20.7946 -0.289441
LeftShoulder1 -3.88251e-019 -0 -3.92111e-022
LeftArm -31.8345 -2.22594 -84.5722
LeftForeArm 32.6093 2.09035 -0.0788302
LeftHand -0.816535 -5.24812 9.2052
RightShoulder 7.45443e-017 -2.42657e-020 1.96277e-018
RightArm -25.9925 -10.1584 71.9491
RightForeArm 19.9131 5.04745 5.99645
RightHand -1.43179 11.4575 -10.2282
LeftUpLeg -13.6794 -3.24388 0.733098
LeftLeg 13.5482 -6.75468 -0.801094
LeftFoot -6.96528 -0.113357 4.0638
LeftToes 3.91355e-005 3.11907e-005 -4.10385e-006
656
root 3.57995 39.3942 -32.7287 -175.083 21.7277 -177.371
RightUpLeg -11.2962 2.92615 -2.26404
RightLeg 10.4502 18.3623 -0.292229
RightFoot -7.90362 -0.27873 7.48489
RightToes 2.92371e-005 7.89716e-005 -0.000493274
Spine 1.78033 -0.406752 1.3085
Spine1 3.56659 -0.880921 1.93196
HEad 19.7626 -19.2955 -1.47063
LeftShoulder1 -3.88251e-019 -0 -3.92111e-022
LeftArm -31.5896 -3.00391 -84.8031
LeftForeArm 32.5076 2.15342 -0.541362
LeftHand -0.767192 -5.3416 8.59898
RightShoulder 7.45443e-017 -2.42657e-020 1.96277e-018
RightArm -26.0379 -10.2527 72.3632
RightForeArm 20.0671 5.48158 6.41292
RightHand -1.44078 11.5752 -10.2221
LeftUpLeg -10.8106 -1.48779 -0.419789
LeftLeg 13.0314 -8.11645 -1.32326
LeftFoot -8.0304 -0.0925846 4.87442
LeftToes 3.91355e-005 3.11907e-005 -4.10385e-006
